<?xml version="1.0" encoding="UTF-8"?>
<svg width="44px" height="39px" viewBox="0 0 44 39" xmlns="http://www.w3.org/2000/svg" xmlns:xlink="http://www.w3.org/1999/xlink" version="1.1">
 <!-- Generated by Pixelmator Pro 1.3.1 -->
 <path id="path" d="M21.601 21.961 C18.241 21.968 15.52 24.689 15.513 28.049 L16.62 28.049 C16.62 25.298 18.85 23.068 21.601 23.068 24.352 23.068 26.582 25.298 26.582 28.049 L27.689 28.049 C27.686 24.688 24.962 21.964 21.601 21.961 Z" fill="#ffffff" fill-opacity="1" stroke="none"/>
 <path id="path-1" d="M21.597 24.175 C19.458 24.178 17.726 25.911 17.723 28.049 L18.83 28.049 C18.83 26.521 20.069 25.282 21.597 25.282 23.125 25.282 24.364 26.521 24.364 28.049 L25.471 28.049 C25.468 25.911 23.735 24.178 21.597 24.175 Z" fill="#ffffff" fill-opacity="1" stroke="none"/>
 <path id="path-2" d="M21.601 20.855 C25.572 20.859 28.79 24.077 28.794 28.048 L29.901 28.048 C29.896 23.468 26.182 19.757 21.601 19.757 17.02 19.757 13.306 23.468 13.301 28.048 L14.408 28.048 C14.412 24.077 17.63 20.859 21.601 20.855 Z" fill="#ffffff" fill-opacity="1" stroke="none"/>
 <path id="path-3" d="M32.273 17.188 L32.273 31.63 10.927 31.63 10.927 17.187 C10.49 17.033 10.088 16.795 9.742 16.487 9.396 16.795 8.992 17.033 8.555 17.187 L8.555 34.003 34.648 34.003 34.648 17.188 C34.211 17.034 33.808 16.797 33.462 16.488 33.115 16.797 32.711 17.034 32.273 17.188 Z" fill="#ffffff" fill-opacity="1" stroke="none"/>
 <path id="path-4" d="M34.645 5.543 L8.556 5.543 5 11.472 5 13.843 C5 15.153 6.062 16.215 7.372 16.215 8.675 16.199 9.728 15.146 9.743 13.843 9.725 14.702 10.173 15.503 10.914 15.938 11.655 16.373 12.573 16.373 13.314 15.938 14.055 15.503 14.504 14.702 14.486 13.843 14.486 14.69 14.938 15.473 15.672 15.897 16.405 16.32 17.309 16.32 18.043 15.897 18.777 15.473 19.229 14.69 19.229 13.843 19.211 14.702 19.659 15.503 20.4 15.938 21.141 16.373 22.059 16.373 22.8 15.938 23.541 15.503 23.99 14.702 23.972 13.843 23.972 14.69 24.424 15.473 25.158 15.897 25.891 16.32 26.795 16.32 27.529 15.897 28.263 15.473 28.715 14.69 28.715 13.843 28.715 15.153 29.777 16.215 31.087 16.215 32.39 16.199 33.443 15.146 33.458 13.843 33.458 14.69 33.91 15.473 34.644 15.897 35.377 16.32 36.281 16.32 37.015 15.897 37.749 15.473 38.201 14.69 38.201 13.843 L38.201 11.471 Z" fill="#ffffff" fill-opacity="1" stroke="none"/>
</svg>
