<svg xmlns="http://www.w3.org/2000/svg" width="16.975" height="15.495" viewBox="0 0 16.975 8.495">
  <g id="Group_100" data-name="Group 100" transform="translate(-10491.545 -4144.026)">
    <path id="Path_5" data-name="Path 5" d="M187.965,246.4a3.718,3.718,0,0,0-3.713,3.713h1.061a2.652,2.652,0,0,1,5.3,0h1.061A3.718,3.718,0,0,0,187.965,246.4Z" transform="translate(10312.038 3902.403)" fill="#00af9a"/>
    <path id="Path_6" data-name="Path 6" d="M181.053,237.9a5.311,5.311,0,0,0-5.3,5.3h1.061a4.244,4.244,0,0,1,8.488,0h1.061A5.311,5.311,0,0,0,181.053,237.9Z" transform="translate(10318.979 3909.313)" fill="#00af9a"/>
    <path id="Path_7" data-name="Path 7" d="M174.14,229.4a6.9,6.9,0,0,0-6.9,6.9H168.3a5.835,5.835,0,0,1,11.67,0h1.061A6.9,6.9,0,0,0,174.14,229.4Z" transform="translate(10325.892 3916.224)" fill="#00af9a"/>
    <path id="Path_8" data-name="Path 8" d="M167.227,220.892a8.5,8.5,0,0,0-8.487,8.487H159.8a7.427,7.427,0,0,1,14.853,0h1.061A8.5,8.5,0,0,0,167.227,220.892Z" transform="translate(10332.805 3923.134)" fill="#00af9a"/>
  </g>
</svg>
