<svg xmlns="http://www.w3.org/2000/svg" width="10.776" height="10.776" viewBox="0 0 10.776 10.776">
  <path id="info" d="M-819.612-44A5.394,5.394,0,0,0-825-38.612a5.394,5.394,0,0,0,5.388,5.388,5.394,5.394,0,0,0,5.388-5.388A5.394,5.394,0,0,0-819.612-44Zm.35,8.585c-.256.043-.765.149-1.024.171a.63.63,0,0,1-.552-.287.673.673,0,0,1-.082-.617l1.018-2.8h-1.059a1.266,1.266,0,0,1,1-1.177,3.9,3.9,0,0,1,1.024-.17.812.812,0,0,1,.551.287.673.673,0,0,1,.082.617l-1.018,2.8h1.059a1.192,1.192,0,0,1-1,1.176Zm.323-5.218a.673.673,0,0,1-.674-.674.673.673,0,0,1,.674-.674.674.674,0,0,1,.674.674.674.674,0,0,1-.674.674Z" transform="translate(825 44)" fill="#09f"/>
</svg>
