<svg id="logo-aec" xmlns="http://www.w3.org/2000/svg" width="54.004" height="27.002" viewBox="0 0 54.004 27.002">
  <path id="Path_84" data-name="Path 84" d="M86.747,52.888V45.342H84.975v9h4.188V52.888Z" transform="translate(-68.112 -36.344)" fill="#ff8300"/>
  <rect id="Rectangle_114" data-name="Rectangle 114" width="27.002" height="27.002" fill="#211747"/>
  <g id="Group_54" data-name="Group 54" transform="translate(5.776 8.998)">
    <path id="Path_85" data-name="Path 85" d="M31.018,45.342l-1.915,9h1.63L31.1,52.4H32.89l.372,1.944h1.772l-1.915-9Zm.343,5.7.629-3.23h.057l.6,3.23Z" transform="translate(-29.103 -45.342)" fill="#00a499"/>
    <path id="Path_86" data-name="Path 86" d="M56.175,46.8h1.687v7.546h1.772V46.8h1.729V45.342H56.175Z" transform="translate(-50.802 -45.342)" fill="#00a499"/>
    <path id="Path_87" data-name="Path 87" d="M86.747,52.888V45.342H84.975v9h4.188V52.888Z" transform="translate(-73.887 -45.342)" fill="#00a499"/>
  </g>
  <rect id="Rectangle_115" data-name="Rectangle 115" width="27.002" height="27.002" transform="translate(27.002)" fill="#00a499"/>
  <path id="Path_88" data-name="Path 88" d="M188.19,70.866a3.942,3.942,0,0,0-3.938,3.938h1.125a2.813,2.813,0,1,1,5.626,0h1.125A3.942,3.942,0,0,0,188.19,70.866Z" transform="translate(-147.687 -56.802)" fill="#fff"/>
  <path id="Path_89" data-name="Path 89" d="M181.373,62.362a5.632,5.632,0,0,0-5.625,5.626h1.125a4.5,4.5,0,1,1,9,0H187A5.632,5.632,0,0,0,181.373,62.362Z" transform="translate(-140.87 -49.986)" fill="#fff"/>
  <path id="Path_90" data-name="Path 90" d="M174.557,53.858a7.322,7.322,0,0,0-7.313,7.313h1.125a6.188,6.188,0,0,1,12.376,0h1.125A7.322,7.322,0,0,0,174.557,53.858Z" transform="translate(-134.054 -43.17)" fill="#fff"/>
  <path id="Path_91" data-name="Path 91" d="M167.741,45.354a9.011,9.011,0,0,0-9,9h1.125a7.876,7.876,0,0,1,15.751,0h1.125A9.011,9.011,0,0,0,167.741,45.354Z" transform="translate(-127.237 -36.353)" fill="#fff"/>
</svg>
