<?xml version="1.0" encoding="UTF-8"?>
<svg width="39px" height="19px" viewBox="0 0 39 19" xmlns="http://www.w3.org/2000/svg" xmlns:xlink="http://www.w3.org/1999/xlink" version="1.1">
 <!-- Generated by Pixelmator Pro 1.3.1 -->
 <path id="path" d="M19.359 10.697 C14.783 10.702 11.074 14.411 11.069 18.987 L13.437 18.987 C13.479 15.747 16.118 13.142 19.358 13.142 22.599 13.142 25.238 15.747 25.28 18.987 L27.649 18.987 C27.643 14.411 23.935 10.703 19.359 10.697 Z" fill="#ffffff" fill-opacity="1" stroke="none"/>
 <path id="path-1" d="M19.423 7.143 C12.885 7.15 7.587 12.448 7.58 18.986 L9.948 18.986 C10.001 13.791 14.227 9.608 19.422 9.608 24.617 9.608 28.844 13.791 28.897 18.986 L31.265 18.986 C31.257 12.449 25.96 7.151 19.423 7.143 Z" fill="#ffffff" fill-opacity="1" stroke="none"/>
 <path id="path-2" d="M19.423 3.589 C10.921 3.596 4.03 10.487 4.023 18.989 L6.391 18.989 C6.453 11.838 12.268 6.075 19.418 6.075 26.569 6.075 32.384 11.838 32.446 18.989 L34.814 18.989 C34.807 10.49 27.922 3.601 19.423 3.589 Z" fill="#ffffff" fill-opacity="1" stroke="none"/>
 <path id="path-3" d="M19.423 0.025 C8.962 0.037 0.485 8.514 0.474 18.974 L2.842 18.974 C2.842 9.817 10.265 2.394 19.422 2.394 28.579 2.394 36.003 9.817 36.003 18.974 L38.372 18.974 C38.36 8.515 29.884 0.038 19.424 0.025 Z" fill="#ffffff" fill-opacity="1" stroke="none"/>
</svg>
