<svg xmlns="http://www.w3.org/2000/svg" width="56.847" height="57" viewBox="0 0 56.847 57">
  <g id="logo-aec" transform="translate(-27.075 -175.538)">
    <rect id="Rectangle_2" data-name="Rectangle 2" width="56.847" height="57" transform="translate(27.075 175.538)" fill="#00af9a"/>
    <path id="Path_5" data-name="Path 5" d="M192.542,246.4a8.3,8.3,0,0,0-8.29,8.29h2.368a5.922,5.922,0,0,1,11.843,0h2.369A8.3,8.3,0,0,0,192.542,246.4Z" transform="translate(-137.108 -41.165)" fill="#fff"/>
    <path id="Path_6" data-name="Path 6" d="M187.591,237.9a11.856,11.856,0,0,0-11.843,11.843h2.368a9.475,9.475,0,0,1,18.949,0h2.368A11.857,11.857,0,0,0,187.591,237.9Z" transform="translate(-132.093 -36.219)" fill="#fff"/>
    <path id="Path_7" data-name="Path 7" d="M182.64,229.4a15.413,15.413,0,0,0-15.4,15.4h2.368a13.028,13.028,0,0,1,26.055,0h2.368A15.413,15.413,0,0,0,182.64,229.4Z" transform="translate(-127.142 -31.273)" fill="#fff"/>
    <path id="Path_8" data-name="Path 8" d="M177.689,220.892a18.97,18.97,0,0,0-18.949,18.949h2.368a16.58,16.58,0,0,1,33.161,0h2.369A18.971,18.971,0,0,0,177.689,220.892Z" transform="translate(-122.191 -26.329)" fill="#fff"/>
  </g>
</svg>
