<?xml version="1.0" encoding="UTF-8"?>
<svg width="16px" height="16px" viewBox="0 0 16 16" xmlns="http://www.w3.org/2000/svg" xmlns:xlink="http://www.w3.org/1999/xlink" version="1.1">
 <!-- Generated by Pixelmator Pro 1.3.1 -->
 <path id="path" d="M0 0 L15.957 0 15.957 16 0 16 Z" fill="#00af9a" fill-opacity="1" stroke="none"/>
 <path id="path-1" d="M7.96 8.336 C6.676 8.338 5.635 9.379 5.633 10.663 L6.298 10.663 C6.31 9.754 7.051 9.022 7.96 9.022 8.87 9.022 9.611 9.754 9.622 10.663 L10.287 10.663 C10.286 9.379 9.245 8.338 7.96 8.336 Z" fill="#ffffff" fill-opacity="1" stroke="none"/>
 <path id="path-2" d="M7.978 7.338 C6.143 7.34 4.656 8.828 4.654 10.663 L5.319 10.663 C5.334 9.205 6.52 8.03 7.978 8.03 9.436 8.03 10.623 9.205 10.638 10.663 L11.302 10.663 C11.3 8.828 9.813 7.341 7.978 7.338 Z" fill="#ffffff" fill-opacity="1" stroke="none"/>
 <path id="path-3" d="M7.978 6.341 C5.592 6.343 3.657 8.277 3.656 10.664 L4.32 10.664 C4.338 8.656 5.97 7.039 7.977 7.039 9.984 7.039 11.616 8.656 11.634 10.664 L12.299 10.664 C12.297 8.278 10.364 6.344 7.978 6.341 Z" fill="#ffffff" fill-opacity="1" stroke="none"/>
 <path id="path-4" d="M7.978 5.34 C5.042 5.344 2.662 7.723 2.659 10.659 L3.324 10.659 C3.324 8.089 5.408 6.005 7.978 6.005 10.549 6.005 12.632 8.089 12.632 10.659 L13.297 10.659 C13.294 7.724 10.915 5.344 7.979 5.34 Z" fill="#ffffff" fill-opacity="1" stroke="none"/>
</svg>
