<svg xmlns="http://www.w3.org/2000/svg" width="26.929" height="27.002" viewBox="0 0 26.929 27.002">
  <g id="nav-logo" transform="translate(-27.075 -175.538)">
    <rect id="Rectangle_2" data-name="Rectangle 2" width="26.929" height="27.002" transform="translate(27.075 175.538)" fill="#00af9a"/>
    <path id="Path_5" data-name="Path 5" d="M188.179,246.4a3.932,3.932,0,0,0-3.927,3.927h1.122a2.805,2.805,0,0,1,5.61,0h1.122A3.932,3.932,0,0,0,188.179,246.4Z" transform="translate(-147.67 -56.796)" fill="#fff"/>
    <path id="Path_6" data-name="Path 6" d="M181.358,237.9a5.617,5.617,0,0,0-5.61,5.61h1.122a4.488,4.488,0,0,1,8.977,0h1.122A5.617,5.617,0,0,0,181.358,237.9Z" transform="translate(-140.819 -49.977)" fill="#fff"/>
    <path id="Path_7" data-name="Path 7" d="M174.537,229.4a7.3,7.3,0,0,0-7.293,7.293h1.122a6.171,6.171,0,0,1,12.343,0h1.122A7.3,7.3,0,0,0,174.537,229.4Z" transform="translate(-133.998 -43.159)" fill="#fff"/>
    <path id="Path_8" data-name="Path 8" d="M167.716,220.892a8.987,8.987,0,0,0-8.976,8.976h1.122a7.855,7.855,0,0,1,15.709,0h1.122A8.987,8.987,0,0,0,167.716,220.892Z" transform="translate(-127.177 -36.341)" fill="#fff"/>
  </g>
</svg>
